<svg width="30.000000" height="19.000000" viewBox="0 0 30 19" fill="none" xmlns="http://www.w3.org/2000/svg" xmlns:xlink="http://www.w3.org/1999/xlink">
	<desc>
			Created with Pixso.
	</desc>
	<defs/>
	<path d="M14.9689 5.53046L22.9756 0.336975C23.6686 -0.112305 24.7922 -0.112305 25.4852 0.336975C26.1782 0.78656 26.1782 1.51526 25.4852 1.96478L16.7016 7.66211C16.2195 7.97504 15.5289 8.07019 14.9199 7.94769C14.3395 8.04144 13.6998 7.94116 13.2461 7.64685L4.5213 1.98761C3.83282 1.54071 3.83282 0.817017 4.5213 0.370605C5.20959 -0.0760498 6.32568 -0.0760498 7.01404 0.370605L14.9689 5.53046ZM14.9509 15.6052L25.8691 8.46429C26.814 7.84613 28.3462 7.84613 29.2912 8.46429C30.2363 9.08221 30.2363 10.0844 29.2912 10.7025L17.3136 18.5364C16.6562 18.9664 15.7145 19.0973 14.8841 18.929C14.0925 19.0578 13.2203 18.9199 12.6015 18.5154L0.704041 10.7334C-0.23468 10.1198 -0.23468 9.12445 0.704041 8.51031C1.64264 7.89636 3.16455 7.89636 4.10321 8.51031L14.9509 15.6052Z" clip-rule="evenodd" fill="#FFFFFF" fill-opacity="1.000000" fill-rule="evenodd"/>
</svg>
