<svg width="161.000000" height="154.945312" viewBox="0 0 161 154.945" fill="none" xmlns="http://www.w3.org/2000/svg" xmlns:xlink="http://www.w3.org/1999/xlink">
	<desc>
			Created with Pixso.
	</desc>
	<defs/>
	<path d="M58.14 18.57C53.17 13.06 51.78 9.29 42.94 3C33.1 3 15.12 20.41 21.18 29.7C32.21 41.98 74.93 43.24 80.59 42.37C81.29 41.3 61.62 22.73 58.14 18.57Z" fill="#FFCF48" fill-opacity="1.000000" fill-rule="nonzero"/>
	<path d="M53.07 16.74C48.7 11.42 47.41 7.84 39.36 1.94C30.52 1.94 14.32 18.57 19.79 27.38C29.72 39.08 68.17 40.33 73.24 39.46C73.94 38.4 56.15 20.7 53.07 16.74Z" fill="#FFBC33" fill-opacity="1.000000" fill-rule="nonzero"/>
	<path d="M117.16 3C108.32 9.19 106.83 12.97 101.96 18.57C98.48 22.73 78.71 41.4 79.6 42.46C85.16 43.43 127.99 42.08 138.92 29.79C144.88 20.41 127 3.1 117.16 3Z" fill="#FFCF48" fill-opacity="1.000000" fill-rule="nonzero"/>
	<path d="M42.94 3C33.1 3 15.12 20.41 21.18 29.7C32.21 41.98 74.93 43.24 80.59 42.37C81.29 41.3 61.62 22.73 58.14 18.57C53.17 13.06 51.78 9.29 42.94 3Z" stroke="#000000" stroke-opacity="1.000000" stroke-width="6.000000"/>
	<path d="M101.96 18.57C98.48 22.73 78.71 41.4 79.6 42.46C85.16 43.43 127.99 42.08 138.92 29.79C144.88 20.41 127 3.1 117.16 3C108.32 9.19 106.83 12.97 101.96 18.57Z" stroke="#000000" stroke-opacity="1.000000" stroke-width="6.000000"/>
	<path d="M139.12 52.33L20.88 52.33C14.32 52.33 8.96 57.55 8.96 63.93L8.96 140.34C8.96 146.72 14.32 151.94 20.88 151.94L139.12 151.94C145.67 151.94 151.04 146.72 151.04 140.34L151.04 63.93C151.04 57.55 145.67 52.33 139.12 52.33Z" fill="#FF563B" fill-opacity="1.000000" fill-rule="nonzero"/>
	<path d="M148.16 69.74L22.97 69.74C22.97 70.03 22.87 70.22 22.87 70.51L22.87 138.69C22.87 144.4 27.54 149.04 33.4 149.04L137.73 149.04C147.17 149.72 148.26 145.27 148.26 138.69L148.26 70.51C148.26 70.22 148.16 70.03 148.16 69.74Z" fill="#FF6E50" fill-opacity="1.000000" fill-rule="nonzero"/>
	<path d="M20.88 52.33C14.32 52.33 8.96 57.55 8.96 63.93L8.96 140.34C8.96 146.72 14.32 151.94 20.88 151.94L139.12 151.94C145.67 151.94 151.04 146.72 151.04 140.34L151.04 63.93C151.04 57.55 145.67 52.33 139.12 52.33L20.88 52.33Z" stroke="#000000" stroke-opacity="1.000000" stroke-width="6.000000"/>
	<path d="M65.59 62.97L94.41 62.97L94.41 151.94L65.59 151.94L65.59 62.97Z" fill="#FFCF48" fill-opacity="1.000000" fill-rule="evenodd"/>
	<path d="M89.44 23.31L70.56 23.31C67.78 23.31 65.59 25.44 65.59 28.15L65.59 44.59C65.59 47.3 67.78 49.43 70.56 49.43L89.44 49.43C92.22 49.43 94.41 47.3 94.41 44.59L94.41 28.15C94.41 25.44 92.22 23.31 89.44 23.31Z" fill="#FFCF48" fill-opacity="1.000000" fill-rule="nonzero"/>
	<path d="M94.41 62.97L94.41 151.94L65.59 151.94L65.59 62.97L94.41 62.97Z" stroke="#000000" stroke-opacity="1.000000" stroke-width="6.000000"/>
	<path d="M70.56 23.31C67.78 23.31 65.59 25.44 65.59 28.15L65.59 44.59C65.59 47.3 67.78 49.43 70.56 49.43L89.44 49.43C92.22 49.43 94.41 47.3 94.41 44.59L94.41 28.15C94.41 25.44 92.22 23.31 89.44 23.31L70.56 23.31Z" stroke="#000000" stroke-opacity="1.000000" stroke-width="6.000000"/>
	<path d="M3 66.83L3 53.29C3 46.33 8.36 40.72 14.92 40.72L146.07 40.72C152.63 40.72 158 46.33 158 53.29L158 66.83L3 66.83Z" fill="#FF563B" fill-opacity="1.000000" fill-rule="evenodd"/>
	<path d="M3 53.29C3 46.33 8.36 40.72 14.92 40.72L146.07 40.72C152.63 40.72 158 46.33 158 53.29L158 66.83L3 66.83L3 53.29Z" stroke="#000000" stroke-opacity="1.000000" stroke-width="6.000000"/>
	<path d="M22.87 63.74L22.87 53.29C22.87 47.98 27.44 43.62 33 43.62L144.98 43.62C151.14 43.14 155.01 48.17 155.11 53.29L155.11 63.74L22.87 63.74Z" fill="#FF6E50" fill-opacity="1.000000" fill-rule="evenodd"/>
</svg>
