<svg width="56.000000" height="60.000244" viewBox="0 0 56 60.0002" fill="none" xmlns="http://www.w3.org/2000/svg" xmlns:xlink="http://www.w3.org/1999/xlink">
	<desc>
			Created with Pixso.
	</desc>
	<defs/>
	<path d="M34.72 8.3C34.62 8.3 34.52 8.28 34.43 8.24C34.07 8.08 33.9 7.66 34.06 7.3L37.12 0.42C37.22 0.2 37.42 0.04 37.66 0C37.9 -0.04 38.14 0.05 38.31 0.22L41.43 3.56C41.7 3.85 41.68 4.3 41.39 4.56C41.1 4.83 40.64 4.81 40.37 4.53L38 1.99L35.38 7.88C35.26 8.14 34.99 8.3 34.72 8.3Z" fill="#415A6B" fill-opacity="1.000000" fill-rule="nonzero"/>
	<path d="M49.48 21.71L6.51 21.71C6.11 21.71 5.79 21.4 5.79 21L5.79 14.55C5.79 14.16 6.11 13.84 6.51 13.84L49.48 13.84C49.88 13.84 50.2 14.16 50.2 14.55L50.2 21C50.2 21.4 49.88 21.71 49.48 21.71ZM7.23 20.29L48.76 20.29L48.76 15.27L7.23 15.27L7.23 20.29Z" fill="#415A6B" fill-opacity="1.000000" fill-rule="nonzero"/>
	<path d="M29.95 60L0 60L0 30.33L29.95 30.33L55.99 30.33L55.99 60L29.95 60Z" fill="#415A6B" fill-opacity="1.000000" fill-rule="nonzero"/>
	<path d="M1.95 33.07L31.9 33.07L56 33.07L56 30.33L29.95 30.33L0 30.33L0 60L1.95 60L1.95 33.07Z" fill="#344C59" fill-opacity="1.000000" fill-rule="nonzero"/>
	<path d="M49.85 1.22C51.18 2.54 50.68 4.53 50.75 7.09C48.17 7.02 46.16 7.52 44.83 6.2C44.09 5.47 44.06 4.33 44.75 3.64C45.38 3.02 46.03 3.04 47.01 3.38C46.65 2.41 46.64 1.77 47.26 1.15C47.96 0.46 49.12 0.5 49.85 1.22Z" fill="#EF3E5C" fill-opacity="1.000000" fill-rule="nonzero"/>
	<path d="M49.85 1.22C49.12 0.5 47.96 0.46 47.26 1.15C46.93 1.48 46.78 1.81 46.77 2.19C47.45 1.83 48.35 1.96 48.95 2.56C50.04 3.63 49.9 5.17 49.86 7.09C50.15 7.09 50.45 7.09 50.75 7.09C50.68 4.53 51.18 2.54 49.85 1.22Z" fill="#DD2C52" fill-opacity="1.000000" fill-rule="nonzero"/>
	<path d="M34.74 5.28C35.76 6.29 35.76 7.92 34.75 8.93C33.73 9.94 32.08 9.94 31.07 8.93C30.05 7.93 30.04 6.29 31.06 5.29C32.08 4.28 33.73 4.27 34.74 5.28Z" fill="#415A6B" fill-opacity="1.000000" fill-rule="nonzero"/>
	<path d="M32.66 9.46C31.65 8.46 31.64 6.82 32.66 5.81C33.16 5.31 33.82 5.06 34.48 5.06C33.46 4.28 31.99 4.36 31.06 5.29C30.04 6.29 30.05 7.93 31.07 8.93C31.58 9.44 32.26 9.69 32.93 9.69C32.84 9.62 32.75 9.54 32.66 9.46Z" fill="#344C59" fill-opacity="1.000000" fill-rule="nonzero"/>
	<path d="M25.56 3.64C26.26 4.33 26.22 5.47 25.49 6.2C24.16 7.52 22.15 7.02 19.56 7.09C19.64 4.53 19.14 2.54 20.47 1.22C21.2 0.5 22.36 0.46 23.05 1.15C23.68 1.77 23.66 2.41 23.31 3.38C24.29 3.03 24.93 3.02 25.56 3.64Z" fill="#EF3E5C" fill-opacity="1.000000" fill-rule="nonzero"/>
	<path d="M21.47 2.58C22.05 2.01 22.88 1.87 23.55 2.16C23.52 1.79 23.37 1.47 23.05 1.15C22.36 0.46 21.2 0.5 20.47 1.22C19.14 2.54 19.64 4.53 19.56 7.09C19.91 7.08 20.24 7.08 20.57 7.09C20.52 5.18 20.39 3.65 21.47 2.58Z" fill="#DD2C52" fill-opacity="1.000000" fill-rule="nonzero"/>
	<path d="M8.08 1.5C9.95 3.35 9.25 6.15 9.35 9.74C5.72 9.64 2.9 10.33 1.03 8.49C0 7.47 -0.04 5.86 0.93 4.89C1.81 4.02 2.72 4.05 4.09 4.53C3.6 3.17 3.57 2.28 4.45 1.4C5.43 0.44 7.05 0.48 8.08 1.5Z" fill="#EF3E5C" fill-opacity="1.000000" fill-rule="nonzero"/>
	<path d="M8.08 1.5C7.05 0.48 5.43 0.44 4.45 1.4C3.86 1.99 3.68 2.59 3.77 3.33C3.8 3.31 3.82 3.29 3.84 3.26C4.82 2.3 6.44 2.34 7.47 3.36C9 4.88 8.81 7.03 8.74 9.73C8.94 9.73 9.14 9.74 9.35 9.74C9.25 6.15 9.95 3.35 8.08 1.5Z" fill="#DD2C52" fill-opacity="1.000000" fill-rule="nonzero"/>
	<path d="M56 20.01L56 30.33L29.95 30.33L0 30.33L0 20.01L6.51 20.01L49.48 20.01L56 20.01Z" fill="#F78F4B" fill-opacity="1.000000" fill-rule="nonzero"/>
	<path d="M1.95 22.01L8.46 22.01L51.44 22.01L56 22.01L56 20.01L49.48 20.01L6.51 20.01L0 20.01L0 30.33L1.95 30.33L1.95 22.01Z" fill="#E2783D" fill-opacity="1.000000" fill-rule="nonzero"/>
	<path d="M50.79 44.52C50.79 49.5 46.7 53.55 41.67 53.55C36.63 53.55 32.55 49.5 32.55 44.52C32.55 39.53 36.63 35.49 41.67 35.49C46.7 35.49 50.79 39.53 50.79 44.52Z" fill="#EF3E5C" fill-opacity="1.000000" fill-rule="evenodd"/>
	<path d="M33.42 46.37C33.42 41.38 37.5 37.34 42.53 37.34C45.83 37.34 48.72 39.07 50.32 41.67C49.12 38.08 45.7 35.49 41.67 35.49C36.63 35.49 32.55 39.53 32.55 44.52C32.55 46.24 33.04 47.84 33.88 49.21C33.58 48.31 33.42 47.36 33.42 46.37Z" fill="#DD2C52" fill-opacity="1.000000" fill-rule="nonzero"/>
	<path d="M23.44 49.68L26.04 49.68L26.04 52.26L23.44 52.26L23.44 49.68Z" fill="#FFFFFF" fill-opacity="1.000000" fill-rule="evenodd"/>
	<path d="M23.44 45.81L26.04 45.81L26.04 48.39L23.44 48.39L23.44 45.81Z" fill="#FFFFFF" fill-opacity="1.000000" fill-rule="evenodd"/>
	<path d="M23.44 41.94L26.04 41.94L26.04 44.52L23.44 44.52L23.44 41.94Z" fill="#FFFFFF" fill-opacity="1.000000" fill-rule="evenodd"/>
	<path d="M23.44 38.07L26.04 38.07L26.04 40.65L23.44 40.65L23.44 38.07Z" fill="#FFFFFF" fill-opacity="1.000000" fill-rule="evenodd"/>
	<path d="M16.93 49.68L22.13 49.68L22.13 52.26L16.93 52.26L16.93 49.68Z" fill="#FFFFFF" fill-opacity="1.000000" fill-rule="evenodd"/>
	<path d="M19.53 45.81L22.13 45.81L22.13 48.39L19.53 48.39L19.53 45.81Z" fill="#FFFFFF" fill-opacity="1.000000" fill-rule="evenodd"/>
	<path d="M16.93 41.94L22.13 41.94L22.13 44.52L16.93 44.52L16.93 41.94Z" fill="#FFFFFF" fill-opacity="1.000000" fill-rule="evenodd"/>
	<path d="M19.53 38.07L22.13 38.07L22.13 40.65L19.53 40.65L19.53 38.07Z" fill="#FFFFFF" fill-opacity="1.000000" fill-rule="evenodd"/>
	<path d="M15.62 45.81L18.23 45.81L18.23 48.39L15.62 48.39L15.62 45.81Z" fill="#FFFFFF" fill-opacity="1.000000" fill-rule="evenodd"/>
	<path d="M15.62 38.07L18.23 38.07L18.23 40.65L15.62 40.65L15.62 38.07Z" fill="#FFFFFF" fill-opacity="1.000000" fill-rule="evenodd"/>
	<path d="M13.02 49.68L15.62 49.68L15.62 52.26L13.02 52.26L13.02 49.68Z" fill="#FFFFFF" fill-opacity="1.000000" fill-rule="evenodd"/>
	<path d="M13.02 41.94L15.62 41.94L15.62 44.52L13.02 44.52L13.02 41.94Z" fill="#FFFFFF" fill-opacity="1.000000" fill-rule="evenodd"/>
	<path d="M9.11 45.81L14.32 45.81L14.32 48.39L9.11 48.39L9.11 45.81Z" fill="#FFFFFF" fill-opacity="1.000000" fill-rule="evenodd"/>
	<path d="M9.11 38.07L14.32 38.07L14.32 40.65L9.11 40.65L9.11 38.07Z" fill="#FFFFFF" fill-opacity="1.000000" fill-rule="evenodd"/>
	<path d="M9.11 49.68L11.72 49.68L11.72 52.26L9.11 52.26L9.11 49.68Z" fill="#FFFFFF" fill-opacity="1.000000" fill-rule="evenodd"/>
	<path d="M9.11 41.94L11.72 41.94L11.72 44.52L9.11 44.52L9.11 41.94Z" fill="#FFFFFF" fill-opacity="1.000000" fill-rule="evenodd"/>
	<path d="M5.2 49.68L7.81 49.68L7.81 52.26L5.2 52.26L5.2 49.68Z" fill="#FFFFFF" fill-opacity="1.000000" fill-rule="evenodd"/>
	<path d="M5.2 45.81L7.81 45.81L7.81 48.39L5.2 48.39L5.2 45.81Z" fill="#FFFFFF" fill-opacity="1.000000" fill-rule="evenodd"/>
	<path d="M5.2 41.94L7.81 41.94L7.81 44.52L5.2 44.52L5.2 41.94Z" fill="#FFFFFF" fill-opacity="1.000000" fill-rule="evenodd"/>
	<path d="M5.2 38.07L7.81 38.07L7.81 40.65L5.2 40.65L5.2 38.07Z" fill="#FFFFFF" fill-opacity="1.000000" fill-rule="evenodd"/>
	<path d="M50.79 25.88L5.2 25.88C4.81 25.88 4.49 25.56 4.49 25.17C4.49 24.77 4.81 24.46 5.2 24.46L50.79 24.46C51.18 24.46 51.5 24.77 51.5 25.17C51.5 25.56 51.18 25.88 50.79 25.88Z" fill="#E2783D" fill-opacity="1.000000" fill-rule="nonzero"/>
	<path d="M44.27 27.17C43.88 27.17 43.56 26.85 43.56 26.46L43.56 23.88C43.56 23.48 43.88 23.17 44.27 23.17C44.67 23.17 44.99 23.48 44.99 23.88L44.99 26.46C44.99 26.85 44.67 27.17 44.27 27.17Z" fill="#E2783D" fill-opacity="1.000000" fill-rule="nonzero"/>
	<path d="M49.48 42.65L37.76 42.65C37.37 42.65 37.04 42.33 37.04 41.94C37.04 41.54 37.37 41.23 37.76 41.23L49.48 41.23C49.88 41.23 50.2 41.54 50.2 41.94C50.2 42.33 49.88 42.65 49.48 42.65Z" fill="#FFFFFF" fill-opacity="1.000000" fill-rule="nonzero"/>
	<path d="M50.35 46.6L34.72 46.6C34.32 46.6 34 46.28 34 45.89C34 45.5 34.32 45.18 34.72 45.18L50.35 45.18C50.74 45.18 51.06 45.5 51.06 45.89C51.06 46.28 50.74 46.6 50.35 46.6Z" fill="#FFFFFF" fill-opacity="1.000000" fill-rule="nonzero"/>
	<path d="M44.27 53.55C43.88 53.55 43.56 53.21 43.56 52.79L43.56 36.25C43.56 35.83 43.88 35.49 44.27 35.49C44.67 35.49 44.99 35.83 44.99 36.25L44.99 52.79C44.99 53.21 44.67 53.55 44.27 53.55Z" fill="#FFFFFF" fill-opacity="1.000000" fill-rule="nonzero"/>
	<path d="M29.95 39.05C29.55 39.05 29.23 38.74 29.23 38.34L29.23 31.89C29.23 31.5 29.55 31.18 29.95 31.18C30.35 31.18 30.67 31.5 30.67 31.89L30.67 38.34C30.67 38.74 30.35 39.05 29.95 39.05Z" fill="#344C59" fill-opacity="1.000000" fill-rule="nonzero"/>
	<path d="M41.67 54.26C36.25 54.26 31.83 49.89 31.83 44.52C31.83 39.14 36.25 34.77 41.67 34.77C47.09 34.77 51.5 39.14 51.5 44.52C51.5 49.89 47.09 54.26 41.67 54.26ZM41.67 36.2C37.04 36.2 33.27 39.93 33.27 44.52C33.27 49.1 37.04 52.83 41.67 52.83C46.3 52.83 50.07 49.1 50.07 44.52C50.07 39.93 46.3 36.2 41.67 36.2Z" fill="#FFFFFF" fill-opacity="1.000000" fill-rule="nonzero"/>
</svg>
