<svg width="60.000000" height="49.000000" viewBox="0 0 60 49" fill="none" xmlns="http://www.w3.org/2000/svg" xmlns:xlink="http://www.w3.org/1999/xlink">
	<desc>
			Created with Pixso.
	</desc>
	<defs>
		<clipPath id="clip235903_64">
			<rect rx="-0.500000" width="59.000000" height="48.000000" transform="translate(0.500000 0.500000)" fill="white" fill-opacity="0"/>
		</clipPath>
		<linearGradient x1="29.994965" y1="90.009003" x2="29.994965" y2="1.302475" id="paint_linear_235903_77_0" gradientUnits="userSpaceOnUse">
			<stop stop-color="#FFFFFF" stop-opacity="0.101961"/>
			<stop offset="0.130000" stop-color="#FFFFFF" stop-opacity="0.078431"/>
			<stop offset="1.000000" stop-color="#FFFFFF" stop-opacity="0.050980"/>
		</linearGradient>
		<linearGradient x1="29.038254" y1="19.955446" x2="29.038254" y2="10.300654" id="paint_linear_235903_81_0" gradientUnits="userSpaceOnUse">
			<stop stop-color="#8BC6FF"/>
			<stop offset="1.000000" stop-color="#008BFF"/>
		</linearGradient>
		<linearGradient x1="29.038256" y1="50.918087" x2="29.038256" y2="37.243847" id="paint_linear_235903_82_0" gradientUnits="userSpaceOnUse">
			<stop stop-color="#8BC6FF"/>
			<stop offset="1.000000" stop-color="#008BFF"/>
		</linearGradient>
		<linearGradient x1="30.786386" y1="30.885750" x2="48.869377" y2="30.885750" id="paint_linear_235903_83_0" gradientUnits="userSpaceOnUse">
			<stop stop-color="#8BC6FF"/>
			<stop offset="1.000000" stop-color="#008BFF"/>
		</linearGradient>
		<linearGradient x1="10.257621" y1="30.884830" x2="43.388271" y2="30.884830" id="paint_linear_235903_84_0" gradientUnits="userSpaceOnUse">
			<stop stop-color="#8BC6FF"/>
			<stop offset="1.000000" stop-color="#008BFF"/>
		</linearGradient>
		<linearGradient x1="45.503731" y1="-6.204953" x2="54.132957" y2="-14.852795" id="paint_linear_235903_85_0" gradientUnits="userSpaceOnUse">
			<stop stop-color="#8BC6FF"/>
			<stop offset="1.000000" stop-color="#008BFF"/>
		</linearGradient>
		<linearGradient x1="45.752449" y1="18.421721" x2="63.131332" y2="1.015430" id="paint_linear_235903_86_0" gradientUnits="userSpaceOnUse">
			<stop stop-color="#8BC6FF"/>
			<stop offset="1.000000" stop-color="#008BFF"/>
		</linearGradient>
		<linearGradient x1="-5.772427" y1="36.841164" x2="12.028822" y2="54.679134" id="paint_linear_235903_87_0" gradientUnits="userSpaceOnUse">
			<stop stop-color="#8BC6FF"/>
			<stop offset="1.000000" stop-color="#008BFF"/>
		</linearGradient>
		<linearGradient x1="15.592785" y1="17.610493" x2="36.654602" y2="38.711689" id="paint_linear_235903_88_0" gradientUnits="userSpaceOnUse">
			<stop stop-color="#8BC6FF"/>
			<stop offset="1.000000" stop-color="#008BFF"/>
		</linearGradient>
		<linearGradient x1="14.221809" y1="30.884823" x2="43.561768" y2="30.884823" id="paint_linear_235903_89_0" gradientUnits="userSpaceOnUse">
			<stop stop-color="#8BC6FF"/>
			<stop offset="1.000000" stop-color="#008BFF"/>
		</linearGradient>
		<linearGradient x1="36.599174" y1="38.381344" x2="18.395609" y2="20.675026" id="paint_linear_235903_90_0" gradientUnits="userSpaceOnUse">
			<stop stop-color="#8BC6FF"/>
			<stop offset="1.000000" stop-color="#0079FF"/>
		</linearGradient>
		<linearGradient x1="32.028862" y1="27.797314" x2="24.363121" y2="35.707733" id="paint_linear_235903_91_0" gradientUnits="userSpaceOnUse">
			<stop stop-color="#8BC6FF"/>
			<stop offset="1.000000" stop-color="#0079FF"/>
		</linearGradient>
		<linearGradient x1="27.835247" y1="30.494066" x2="31.191992" y2="30.494066" id="paint_linear_235903_92_0" gradientUnits="userSpaceOnUse">
			<stop stop-color="#8BC6FF" stop-opacity="0.301961"/>
			<stop offset="1.000000" stop-color="#8FD4FF" stop-opacity="0.301961"/>
		</linearGradient>
	</defs>
	<rect rx="-0.500000" width="59.000000" height="48.000000" transform="translate(0.500000 0.500000)" fill="#FFFFFF" fill-opacity="0"/>
	<g clip-path="url(#clip235903_64)">
		<path d="M0 46.07L60 46.07L60 0L0 0L0 46.07Z" fill="#A3A3A3" fill-opacity="1.000000" fill-rule="nonzero"/>
		<path d="M58.8 44.9L1.04 44.9L1.04 1.16L58.8 1.16L58.8 44.9Z" fill="#AFAFAF" fill-opacity="1.000000" fill-rule="nonzero"/>
		<path d="M56.75 41.96L2.77 41.96L2.77 9.36L56.75 9.36L56.75 41.96Z" fill="#CFD8E5" fill-opacity="1.000000" fill-rule="nonzero"/>
		<path d="M55.96 41.16L3.4 41.16L3.4 10.16L55.96 10.16L55.96 41.16Z" fill="#E2E9F2" fill-opacity="1.000000" fill-rule="nonzero"/>
		<path d="M56.75 5.16C56.75 6.84 55.39 8.21 53.71 8.21C52.04 8.21 50.68 6.84 50.68 5.16C50.68 3.48 52.04 2.12 53.71 2.12C55.39 2.12 56.75 3.48 56.75 5.16Z" fill="#A3A3A3" fill-opacity="1.000000" fill-rule="nonzero"/>
		<path d="M56.32 5.16C56.32 6.61 55.15 7.78 53.71 7.78C52.27 7.78 51.1 6.61 51.1 5.16C51.1 3.72 52.27 2.55 53.71 2.55C55.15 2.55 56.32 3.72 56.32 5.16Z" fill="#FF7031" fill-opacity="1.000000" fill-rule="nonzero"/>
		<path d="M48.86 5.16C48.86 6.84 47.5 8.21 45.82 8.21C44.14 8.21 42.78 6.84 42.78 5.16C42.78 3.48 44.14 2.12 45.82 2.12C47.5 2.12 48.86 3.48 48.86 5.16Z" fill="#A3A3A3" fill-opacity="1.000000" fill-rule="nonzero"/>
		<path d="M48.43 5.16C48.43 6.61 47.26 7.78 45.82 7.78C44.38 7.78 43.21 6.61 43.21 5.16C43.21 3.72 44.38 2.55 45.82 2.55C47.26 2.55 48.43 3.72 48.43 5.16Z" fill="#E2E9F2" fill-opacity="1.000000" fill-rule="nonzero"/>
		<path d="M40.85 5.16C40.85 6.84 39.49 8.21 37.82 8.21C36.14 8.21 34.78 6.84 34.78 5.16C34.78 3.48 36.14 2.12 37.82 2.12C39.49 2.12 40.85 3.48 40.85 5.16Z" fill="#A3A3A3" fill-opacity="1.000000" fill-rule="nonzero"/>
		<path d="M40.42 5.16C40.42 6.61 39.26 7.78 37.82 7.78C36.38 7.78 35.21 6.61 35.21 5.16C35.21 3.72 36.38 2.55 37.82 2.55C39.26 2.55 40.42 3.72 40.42 5.16Z" fill="#E2E9F2" fill-opacity="1.000000" fill-rule="nonzero"/>
		<path d="M0 46.07L60 46.07L60 0L0 0L0 46.07Z" fill="url(#paint_linear_235903_77_0)" fill-opacity="1.000000" fill-rule="nonzero"/>
		<path d="M5.7 0L39.56 46.07L53.67 46.07L19.81 0L5.7 0Z" fill="#FFFFFF" fill-opacity="0.203922" fill-rule="nonzero"/>
		<path d="M26.69 0L59.99 45.31L59.99 35.71L33.75 0L26.69 0Z" fill="#FFFFFF" fill-opacity="0.203922" fill-rule="nonzero"/>
		<path d="M25.62 19.6L32.44 19.6L32.44 12.77L25.62 12.77L25.62 19.6Z" fill="url(#paint_linear_235903_81_0)" fill-opacity="1.000000" fill-rule="nonzero"/>
		<path d="M25.62 49L32.44 49L32.44 42.16L25.62 42.16L25.62 49Z" fill="url(#paint_linear_235903_82_0)" fill-opacity="1.000000" fill-rule="nonzero"/>
		<path d="M40.14 34.3L46.97 34.3L46.97 27.46L40.14 27.46L40.14 34.3Z" fill="url(#paint_linear_235903_83_0)" fill-opacity="1.000000" fill-rule="nonzero"/>
		<path d="M10.81 34.3L17.63 34.3L17.63 27.46L10.81 27.46L10.81 34.3Z" fill="url(#paint_linear_235903_84_0)" fill-opacity="1.000000" fill-rule="nonzero"/>
		<path d="M34.48 20.59L39.31 25.42L44.14 20.59L39.31 15.76L34.48 20.59Z" fill="url(#paint_linear_235903_85_0)" fill-opacity="1.000000" fill-rule="nonzero"/>
		<path d="M13.74 41.38L18.57 46.21L23.39 41.38L18.57 36.54L13.74 41.38Z" fill="url(#paint_linear_235903_86_0)" fill-opacity="1.000000" fill-rule="nonzero"/>
		<path d="M34.38 41.27L39.21 46.1L44.03 41.27L39.21 36.44L34.38 41.27Z" fill="url(#paint_linear_235903_87_0)" fill-opacity="1.000000" fill-rule="nonzero"/>
		<path d="M13.64 20.49L18.46 25.32L23.29 20.49L18.46 15.65L13.64 20.49Z" fill="url(#paint_linear_235903_88_0)" fill-opacity="1.000000" fill-rule="nonzero"/>
		<path d="M14.22 30.88C14.22 39 20.79 45.58 28.89 45.58C36.99 45.58 43.56 39 43.56 30.88C43.56 22.76 36.99 16.18 28.89 16.18C20.79 16.18 14.22 22.76 14.22 30.88ZM21.21 30.73C21.21 26.48 24.64 23.04 28.89 23.04C33.13 23.04 36.57 26.48 36.57 30.73C36.57 34.98 33.13 38.43 28.89 38.43C24.64 38.43 21.21 34.98 21.21 30.73Z" fill="url(#paint_linear_235903_89_0)" fill-opacity="1.000000" fill-rule="nonzero"/>
		<path d="M19.43 30.88C19.43 36.11 23.67 40.35 28.89 40.35C34.11 40.35 38.34 36.11 38.34 30.88C38.34 25.65 34.11 21.41 28.89 21.41C23.67 21.41 19.43 25.65 19.43 30.88ZM21.35 30.88C21.35 26.63 24.79 23.19 29.03 23.19C33.27 23.19 36.71 26.63 36.71 30.88C36.71 35.13 33.27 38.57 29.03 38.57C24.79 38.57 21.35 35.13 21.35 30.88Z" fill="url(#paint_linear_235903_90_0)" fill-opacity="1.000000" fill-rule="nonzero"/>
		<path d="M26.28 30.88C26.28 32.4 27.51 33.64 29.03 33.64C30.55 33.64 31.78 32.4 31.78 30.88C31.78 29.36 30.55 28.12 29.03 28.12C27.51 28.12 26.28 29.36 26.28 30.88Z" fill="url(#paint_linear_235903_91_0)" fill-opacity="1.000000" fill-rule="nonzero"/>
		<path d="M27.83 30.49C27.83 29.56 28.58 28.81 29.51 28.81C30.43 28.81 31.19 29.56 31.19 30.49C31.19 31.42 30.43 32.17 29.51 32.17C28.58 32.17 27.83 31.42 27.83 30.49Z" fill="url(#paint_linear_235903_92_0)" fill-opacity="1.000000" fill-rule="nonzero"/>
	</g>
</svg>
