<svg width="50.000000" height="50.000000" viewBox="0 0 50 50" fill="none" xmlns="http://www.w3.org/2000/svg" xmlns:xlink="http://www.w3.org/1999/xlink">
	<desc>
			Created with Pixso.
	</desc>
	<defs>
		<clipPath id="clip235903_93">
			<rect rx="-0.500000" width="49.000000" height="49.000000" transform="translate(0.500000 0.500000)" fill="white" fill-opacity="0"/>
		</clipPath>
	</defs>
	<rect rx="-0.500000" width="49.000000" height="49.000000" transform="translate(0.500000 0.500000)" fill="#FFFFFF" fill-opacity="0"/>
	<g clip-path="url(#clip235903_93)">
		<path d="M50 0L0 0L0 50.06L50 50.06L50 0Z" fill="#FFFBDB" fill-opacity="1.000000" fill-rule="nonzero"/>
		<path d="M0 0L50 0L50 50.06L0 50.06L0 0ZM1 49.06L1 1L49 1L49 49.06L1 49.06Z" fill="#000000" fill-opacity="0.580000" fill-rule="evenodd"/>
		<path d="M38.85 8.79L31.91 8.79L31.91 41.2L38.85 41.2L38.85 8.79Z" fill="#1C4E80" fill-opacity="1.000000" fill-rule="nonzero"/>
		<path d="M38.85 8.79L38.85 41.2L31.91 41.2L31.91 8.79L38.85 8.79Z" stroke="#000000" stroke-opacity="1.000000" stroke-width="1.000000" stroke-linejoin="round"/>
		<path d="M15.76 22.68L8.82 22.68L8.82 41.2L15.76 41.2L15.76 22.68Z" fill="#EA6A47" fill-opacity="1.000000" fill-rule="nonzero"/>
		<path d="M15.76 22.68L15.76 41.2L8.82 41.2L8.82 22.68L15.76 22.68Z" stroke="#000000" stroke-opacity="1.000000" stroke-width="1.000000" stroke-linejoin="round"/>
		<path d="M27.32 13.42L20.38 13.42L20.38 41.2L27.32 41.2L27.32 13.42Z" fill="#FFFFFF" fill-opacity="1.000000" fill-rule="nonzero"/>
		<path d="M27.32 13.42L27.32 41.2L20.38 41.2L20.38 13.42L27.32 13.42Z" stroke="#000000" stroke-opacity="1.000000" stroke-width="1.000000" stroke-linejoin="round"/>
		<path d="M6.42 8.61L4.2 4.16L1.98 8.61L6.42 8.61Z" fill="#202020" fill-opacity="1.000000" fill-rule="evenodd"/>
		<path d="M41.37 43.61L45.81 45.83L41.37 48.05L41.37 43.61Z" fill="#202020" fill-opacity="1.000000" fill-rule="evenodd"/>
		<line x1="3.333252" y1="45.727295" x2="41.666565" y2="45.727295" stroke="#202020" stroke-opacity="1.000000" stroke-width="2.000000"/>
		<line x1="4.333252" y1="6.675293" x2="4.333252" y2="45.894287" stroke="#202020" stroke-opacity="1.000000" stroke-width="2.000000"/>
	</g>
</svg>
