<svg width="60.000000" height="60.000000" viewBox="0 0 60 60" fill="none" xmlns="http://www.w3.org/2000/svg" xmlns:xlink="http://www.w3.org/1999/xlink">
	<desc>
			Created with Pixso.
	</desc>
	<defs>
		<clipPath id="clip235903_104">
			<rect rx="-0.500000" width="59.000000" height="59.000000" transform="translate(0.500000 0.500000)" fill="white" fill-opacity="0"/>
		</clipPath>
	</defs>
	<rect rx="-0.500000" width="59.000000" height="59.000000" transform="translate(0.500000 0.500000)" fill="#FFFFFF" fill-opacity="0"/>
	<g clip-path="url(#clip235903_104)">
		<path d="M30.44 28.35C35.7 28.35 39.98 24.07 39.98 18.81C39.98 13.55 35.7 9.27 30.44 9.27C25.18 9.27 20.9 13.55 20.9 18.81C20.9 24.07 25.18 28.35 30.44 28.35Z" fill="#F9EFE3" fill-opacity="1.000000" fill-rule="nonzero"/>
		<path d="M37.4 26.78C35.52 28.44 33.06 29.45 30.37 29.45C27.7 29.45 25.19 28.46 23.32 26.83C23.3 26.84 23.14 26.85 23.12 26.86C20.04 28.32 18.05 30.84 18.05 33.96L18.05 51.12L42.34 51.12L42.34 33.96C42.34 30.85 40.54 28.24 37.4 26.78Z" fill="#B0E0D4" fill-opacity="1.000000" fill-rule="nonzero"/>
		<path d="M12.52 32.83L12.52 41.18L2.58 41.18L2.58 31.37C2.58 29.56 3.67 28.22 5.41 27.4C6.55 28.34 8.1 28.91 9.69 28.91C11.19 28.91 12.62 28.4 13.72 27.55L14.52 28.11C12.81 29.89 12.52 32.7 12.52 32.83ZM9.79 27.8C6.78 27.8 4.33 25.36 4.33 22.34C4.33 19.33 6.78 16.88 9.79 16.88C12.8 16.88 15.25 19.33 15.25 22.34C15.25 25.36 12.8 27.8 9.79 27.8Z" fill="#E0F1F8" fill-opacity="1.000000" fill-rule="nonzero"/>
		<path d="M45.94 28.27L46.82 27.71C47.92 28.55 49.33 29.06 50.82 29.06C52.41 29.06 53.93 28.5 55.07 27.55C56.81 28.38 57.8 29.71 57.8 31.52L57.8 41.18L47.87 41.18L47.87 32.98C47.87 32.85 47.65 30.04 45.94 28.27ZM45.3 22.5C45.3 19.49 47.76 17.04 50.77 17.04C53.78 17.04 56.22 19.49 56.22 22.5C56.22 25.51 53.78 27.96 50.77 27.96C47.76 27.96 45.3 25.51 45.3 22.5Z" fill="#E0F1F8" fill-opacity="1.000000" fill-rule="nonzero"/>
		<path d="M30.23 30.65C23.75 30.65 18.48 25.38 18.48 18.9C18.48 12.42 23.75 7.15 30.23 7.15C36.71 7.15 41.98 12.42 41.98 18.9C41.98 25.38 36.71 30.65 30.23 30.65ZM30.23 10.46C25.58 10.46 21.79 14.25 21.79 18.9C21.79 23.55 25.58 27.34 30.23 27.34C34.88 27.34 38.67 23.55 38.67 18.9C38.67 14.25 34.88 10.46 30.23 10.46Z" fill="#454B53" fill-opacity="1.000000" fill-rule="nonzero"/>
		<path d="M42.75 52.37C41.83 52.37 41.09 51.63 41.09 50.71L41.09 34.05C41.09 31.33 39.54 29.13 36.74 27.85C35.91 27.47 35.54 26.49 35.92 25.66C36.3 24.82 37.28 24.46 38.12 24.84C42.11 26.67 44.4 30.02 44.4 34.05L44.4 50.71C44.4 51.63 43.66 52.37 42.75 52.37Z" fill="#454B53" fill-opacity="1.000000" fill-rule="nonzero"/>
		<path d="M17.87 52.37C16.96 52.37 16.22 51.63 16.22 50.71L16.22 34.05C16.22 30.09 18.42 26.77 22.26 24.96C23.09 24.57 24.08 24.92 24.47 25.75C24.86 26.57 24.51 27.56 23.68 27.95C20.97 29.24 19.53 31.34 19.53 34.05L19.53 50.71C19.53 51.63 18.79 52.37 17.87 52.37Z" fill="#454B53" fill-opacity="1.000000" fill-rule="nonzero"/>
		<path d="M9.79 30.06C5.56 30.06 2.12 26.62 2.12 22.39C2.12 18.16 5.56 14.72 9.79 14.72C14.02 14.72 17.46 18.16 17.46 22.39C17.46 26.62 14.02 30.06 9.79 30.06ZM9.79 18.04C7.39 18.04 5.43 19.99 5.43 22.39C5.43 24.79 7.39 26.75 9.79 26.75C12.19 26.75 14.14 24.79 14.14 22.39C14.14 19.99 12.19 18.04 9.79 18.04Z" fill="#454B53" fill-opacity="1.000000" fill-rule="nonzero"/>
		<path d="M2.43 42.74C1.51 42.74 0.77 42 0.77 41.09L0.77 31.41C0.77 28.75 2.15 26.64 4.66 25.45C5.49 25.06 6.47 25.41 6.87 26.24C7.26 27.06 6.91 28.05 6.08 28.44C4.74 29.08 4.09 30.05 4.09 31.41L4.09 41.09C4.09 42 3.34 42.74 2.43 42.74Z" fill="#454B53" fill-opacity="1.000000" fill-rule="nonzero"/>
		<path d="M50.73 30.06C46.51 30.06 43.07 26.62 43.07 22.39C43.07 18.16 46.51 14.72 50.73 14.72C54.96 14.72 58.4 18.16 58.4 22.39C58.4 26.62 54.96 30.06 50.73 30.06ZM50.73 18.04C48.33 18.04 46.38 19.99 46.38 22.39C46.38 24.79 48.33 26.75 50.73 26.75C53.14 26.75 55.09 24.79 55.09 22.39C55.09 19.99 53.14 18.04 50.73 18.04Z" fill="#454B53" fill-opacity="1.000000" fill-rule="nonzero"/>
		<path d="M58.19 42.74C57.27 42.74 56.53 42 56.53 41.09L56.53 31.41C56.53 30.02 55.86 29.04 54.46 28.4C53.63 28.02 53.26 27.03 53.64 26.2C54.02 25.37 55.01 25.01 55.84 25.39C58.42 26.57 59.85 28.71 59.85 31.41L59.85 41.09C59.85 42 59.1 42.74 58.19 42.74Z" fill="#454B53" fill-opacity="1.000000" fill-rule="nonzero"/>
	</g>
</svg>
