<svg width="60.000000" height="60.000000" viewBox="0 0 60 60" fill="none" xmlns="http://www.w3.org/2000/svg" xmlns:xlink="http://www.w3.org/1999/xlink">
	<desc>
			Created with Pixso.
	</desc>
	<defs>
		<clipPath id="clip235903_120">
			<rect rx="-0.500000" width="59.000000" height="59.000000" transform="translate(0.500000 0.500000)" fill="white" fill-opacity="0"/>
		</clipPath>
	</defs>
	<rect rx="-0.500000" width="59.000000" height="59.000000" transform="translate(0.500000 0.500000)" fill="#FFFFFF" fill-opacity="0"/>
	<g clip-path="url(#clip235903_120)">
		<path d="M60 30C60 46.56 46.56 60 30 60C13.43 60 0 46.56 0 30C0 13.43 13.43 0 30 0C46.56 0 60 13.43 60 30Z" fill="#3DB9E3" fill-opacity="1.000000" fill-rule="evenodd"/>
		<path d="M7 11L55 11C56.1 11 57 11.89 57 13L57 46C57 47.1 56.1 48 55 48L7 48C5.89 48 5 47.1 5 46L5 13C5 11.89 5.89 11 7 11Z" fill="#343840" fill-opacity="1.000000" fill-rule="evenodd"/>
		<path d="M11 15L47 0L52 15L11 15Z" fill="#2CA651" fill-opacity="1.000000" fill-rule="nonzero"/>
		<path d="M7 14L52 14C53.1 14 54 14.89 54 16L54 49C54 50.1 53.1 51 52 51L7 51C5.89 51 5 50.1 5 49L5 16C5 14.89 5.89 14 7 14Z" fill="#464C59" fill-opacity="1.000000" fill-rule="evenodd"/>
		<path d="M7 17L9 17" stroke="#1E3064" stroke-opacity="1.000000" stroke-width="1.750000"/>
		<path d="M7 17L9 17" stroke="#FFFB01" stroke-opacity="1.000000" stroke-width="1.000000"/>
		<path d="M11 17L13 17" stroke="#1E3064" stroke-opacity="1.000000" stroke-width="1.750000"/>
		<path d="M11 17L13 17" stroke="#FFFB01" stroke-opacity="1.000000" stroke-width="1.000000"/>
		<path d="M15 17L17 17" stroke="#1E3064" stroke-opacity="1.000000" stroke-width="1.750000"/>
		<path d="M15 17L17 17" stroke="#FFFB01" stroke-opacity="1.000000" stroke-width="1.000000"/>
		<path d="M19 17L21 17" stroke="#1E3064" stroke-opacity="1.000000" stroke-width="1.750000"/>
		<path d="M19 17L21 17" stroke="#FFFB01" stroke-opacity="1.000000" stroke-width="1.000000"/>
		<path d="M23 17L25 17" stroke="#1E3064" stroke-opacity="1.000000" stroke-width="1.750000"/>
		<path d="M23 17L25 17" stroke="#FFFB01" stroke-opacity="1.000000" stroke-width="1.000000"/>
		<path d="M27 17L29 17" stroke="#1E3064" stroke-opacity="1.000000" stroke-width="1.750000"/>
		<path d="M27 17L29 17" stroke="#FFFB01" stroke-opacity="1.000000" stroke-width="1.000000"/>
		<path d="M31 17L33 17" stroke="#1E3064" stroke-opacity="1.000000" stroke-width="1.750000"/>
		<path d="M31 17L33 17" stroke="#FFFB01" stroke-opacity="1.000000" stroke-width="1.000000"/>
		<path d="M35 17L37 17" stroke="#1E3064" stroke-opacity="1.000000" stroke-width="1.750000"/>
		<path d="M35 17L37 17" stroke="#FFFB01" stroke-opacity="1.000000" stroke-width="1.000000"/>
		<path d="M39 17L41 17" stroke="#1E3064" stroke-opacity="1.000000" stroke-width="1.750000"/>
		<path d="M39 17L41 17" stroke="#FFFB01" stroke-opacity="1.000000" stroke-width="1.000000"/>
		<path d="M43 17L45 17" stroke="#1E3064" stroke-opacity="1.000000" stroke-width="1.750000"/>
		<path d="M43 17L45 17" stroke="#FFFB01" stroke-opacity="1.000000" stroke-width="1.000000"/>
		<path d="M47 17L49 17" stroke="#1E3064" stroke-opacity="1.000000" stroke-width="1.750000"/>
		<path d="M47 17L49 17" stroke="#FFFB01" stroke-opacity="1.000000" stroke-width="1.000000"/>
		<path d="M51 17L53 17" stroke="#1E3064" stroke-opacity="1.000000" stroke-width="1.750000"/>
		<path d="M51 17L53 17" stroke="#FFFB01" stroke-opacity="1.000000" stroke-width="1.000000"/>
		<path d="M7 48L9 48" stroke="#1E3064" stroke-opacity="1.000000" stroke-width="1.750000"/>
		<path d="M7 48L9 48" stroke="#FFFB01" stroke-opacity="1.000000" stroke-width="1.000000"/>
		<path d="M11 48L13 48" stroke="#1E3064" stroke-opacity="1.000000" stroke-width="1.750000"/>
		<path d="M11 48L13 48" stroke="#FFFB01" stroke-opacity="1.000000" stroke-width="1.000000"/>
		<path d="M15 48L17 48" stroke="#1E3064" stroke-opacity="1.000000" stroke-width="1.750000"/>
		<path d="M15 48L17 48" stroke="#FFFB01" stroke-opacity="1.000000" stroke-width="1.000000"/>
		<path d="M19 48L21 48" stroke="#1E3064" stroke-opacity="1.000000" stroke-width="1.750000"/>
		<path d="M19 48L21 48" stroke="#FFFB01" stroke-opacity="1.000000" stroke-width="1.000000"/>
		<path d="M23 48L25 48" stroke="#1E3064" stroke-opacity="1.000000" stroke-width="1.750000"/>
		<path d="M23 48L25 48" stroke="#FFFB01" stroke-opacity="1.000000" stroke-width="1.000000"/>
		<path d="M27 48L29 48" stroke="#1E3064" stroke-opacity="1.000000" stroke-width="1.750000"/>
		<path d="M27 48L29 48" stroke="#FFFB01" stroke-opacity="1.000000" stroke-width="1.000000"/>
		<path d="M31 48L33 48" stroke="#1E3064" stroke-opacity="1.000000" stroke-width="1.750000"/>
		<path d="M31 48L33 48" stroke="#FFFB01" stroke-opacity="1.000000" stroke-width="1.000000"/>
		<path d="M35 48L37 48" stroke="#1E3064" stroke-opacity="1.000000" stroke-width="1.750000"/>
		<path d="M35 48L37 48" stroke="#FFFB01" stroke-opacity="1.000000" stroke-width="1.000000"/>
		<path d="M39 48L41 48" stroke="#1E3064" stroke-opacity="1.000000" stroke-width="1.750000"/>
		<path d="M39 48L41 48" stroke="#FFFB01" stroke-opacity="1.000000" stroke-width="1.000000"/>
		<path d="M43 48L45 48" stroke="#1E3064" stroke-opacity="1.000000" stroke-width="1.750000"/>
		<path d="M43 48L45 48" stroke="#FFFB01" stroke-opacity="1.000000" stroke-width="1.000000"/>
		<path d="M47 48L49 48" stroke="#1E3064" stroke-opacity="1.000000" stroke-width="1.750000"/>
		<path d="M47 48L49 48" stroke="#FFFB01" stroke-opacity="1.000000" stroke-width="1.000000"/>
		<path d="M51 48L53 48" stroke="#1E3064" stroke-opacity="1.000000" stroke-width="1.750000"/>
		<path d="M51 48L53 48" stroke="#FFFB01" stroke-opacity="1.000000" stroke-width="1.000000"/>
		<path d="M46 7.5C46 8.88 44.88 10 43.5 10C42.11 10 41 8.88 41 7.5C41 6.11 42.11 5 43.5 5C44.88 5 46 6.11 46 7.5Z" fill="#4DB678" fill-opacity="1.000000" fill-rule="evenodd"/>
		<path d="M43 28L54 28L54 38L43 38C42.73 38 42.48 37.89 42.29 37.7C42.1 37.51 42 37.26 42 37L42 29C42 28.73 42.1 28.48 42.29 28.29C42.48 28.1 42.73 28 43 28Z" fill="#343840" fill-opacity="1.000000" fill-rule="nonzero"/>
		<path d="M47 33C47 33.82 46.32 34.5 45.5 34.5C44.67 34.5 44 33.82 44 33C44 32.17 44.67 31.5 45.5 31.5C46.32 31.5 47 32.17 47 33Z" fill="#8D8D93" fill-opacity="1.000000" fill-rule="evenodd"/>
		<path d="M53 33C53 34.38 51.88 35.5 50.5 35.5C49.11 35.5 48 34.38 48 33C48 31.61 49.11 30.5 50.5 30.5C51.88 30.5 53 31.61 53 33Z" fill="#8D8D93" fill-opacity="1.000000" fill-rule="evenodd"/>
		<path d="M51.5 33C51.5 33.55 51.05 34 50.5 34C49.94 34 49.5 33.55 49.5 33C49.5 32.44 49.94 32 50.5 32C51.05 32 51.5 32.44 51.5 33Z" fill="#DEDCE0" fill-opacity="1.000000" fill-rule="evenodd"/>
	</g>
</svg>
